<svg width="190" height="191" xmlns="http://www.w3.org/2000/svg" xmlns:xlink="http://www.w3.org/1999/xlink" overflow="hidden"><defs><clipPath id="clip0"><path d="M333 431 523 431 523 622 333 622Z" fill-rule="evenodd" clip-rule="evenodd"/></clipPath><linearGradient x1="522" y1="621" x2="333" y2="432" gradientUnits="userSpaceOnUse" spreadMethod="reflect" id="fill1"><stop offset="0" stop-color="#0066CC"/><stop offset="0.0136986" stop-color="#0067CC"/><stop offset="0.0273973" stop-color="#0069CD"/><stop offset="0.0410959" stop-color="#006BCE"/><stop offset="0.0547945" stop-color="#006DCF"/><stop offset="0.0684932" stop-color="#006FD0"/><stop offset="0.0821918" stop-color="#0070D1"/><stop offset="0.0958904" stop-color="#0072D2"/><stop offset="0.109589" stop-color="#0074D3"/><stop offset="0.123288" stop-color="#0076D3"/><stop offset="0.136986" stop-color="#0077D4"/><stop offset="0.150685" stop-color="#0079D5"/><stop offset="0.164384" stop-color="#007BD6"/><stop offset="0.178082" stop-color="#007CD7"/><stop offset="0.191781" stop-color="#007ED7"/><stop offset="0.205479" stop-color="#007FD8"/><stop offset="0.219178" stop-color="#0081D9"/><stop offset="0.232877" stop-color="#0082DA"/><stop offset="0.246575" stop-color="#0084DA"/><stop offset="0.260274" stop-color="#0085DB"/><stop offset="0.273973" stop-color="#0087DC"/><stop offset="0.287671" stop-color="#0088DC"/><stop offset="0.30137" stop-color="#008ADD"/><stop offset="0.315068" stop-color="#008BDE"/><stop offset="0.328767" stop-color="#008CDE"/><stop offset="0.342466" stop-color="#008EDF"/><stop offset="0.356164" stop-color="#008FE0"/><stop offset="0.369863" stop-color="#0090E0"/><stop offset="0.383562" stop-color="#0092E1"/><stop offset="0.39726" stop-color="#0093E2"/><stop offset="0.410959" stop-color="#0094E2"/><stop offset="0.424658" stop-color="#0095E3"/><stop offset="0.438356" stop-color="#0096E3"/><stop offset="0.452055" stop-color="#0098E4"/><stop offset="0.465753" stop-color="#0099E4"/><stop offset="0.479452" stop-color="#009AE5"/><stop offset="0.493151" stop-color="#009BE5"/><stop offset="0.506849" stop-color="#009CE6"/><stop offset="0.520548" stop-color="#009DE6"/><stop offset="0.534247" stop-color="#009EE7"/><stop offset="0.547945" stop-color="#009FE7"/><stop offset="0.561644" stop-color="#00A0E8"/><stop offset="0.575342" stop-color="#00A1E8"/><stop offset="0.589041" stop-color="#00A2E9"/><stop offset="0.60274" stop-color="#00A2E9"/><stop offset="0.616438" stop-color="#00A3EA"/><stop offset="0.630137" stop-color="#00A4EA"/><stop offset="0.643836" stop-color="#00A5EA"/><stop offset="0.657534" stop-color="#00A6EB"/><stop offset="0.671233" stop-color="#00A6EB"/><stop offset="0.684932" stop-color="#00A7EB"/><stop offset="0.69863" stop-color="#00A8EC"/><stop offset="0.712329" stop-color="#00A8EC"/><stop offset="0.726027" stop-color="#00A9EC"/><stop offset="0.739726" stop-color="#00AAED"/><stop offset="0.753425" stop-color="#00AAED"/><stop offset="0.767123" stop-color="#00ABED"/><stop offset="0.780822" stop-color="#00ABED"/><stop offset="0.794521" stop-color="#00ACEE"/><stop offset="0.808219" stop-color="#00ACEE"/><stop offset="0.821918" stop-color="#00ADEE"/><stop offset="0.835616" stop-color="#00ADEE"/><stop offset="0.849315" stop-color="#00ADEE"/><stop offset="0.863014" stop-color="#00AEEF"/><stop offset="0.876712" stop-color="#00AEEF"/><stop offset="0.890411" stop-color="#00AEEF"/><stop offset="0.90411" stop-color="#00AFEF"/><stop offset="0.917808" stop-color="#00AFEF"/><stop offset="0.931507" stop-color="#00AFEF"/><stop offset="0.945205" stop-color="#00AFEF"/><stop offset="0.958904" stop-color="#00AFEF"/><stop offset="0.972603" stop-color="#00AFEF"/><stop offset="0.986301" stop-color="#00AFEF"/><stop offset="1" stop-color="#00B0F0"/></linearGradient><clipPath id="clip2"><path d="M335 485 521 485 521 558 335 558Z" fill-rule="evenodd" clip-rule="evenodd"/></clipPath><clipPath id="clip3"><path d="M335 485 521 485 521 558 335 558Z" fill-rule="evenodd" clip-rule="evenodd"/></clipPath><clipPath id="clip4"><path d="M335 485 521 485 521 558 335 558Z" fill-rule="evenodd" clip-rule="evenodd"/></clipPath></defs><g clip-path="url(#clip0)" transform="translate(-333 -431)"><rect x="333" y="432" width="189" height="189" fill="url(#fill1)"/><g clip-path="url(#clip2)"><g clip-path="url(#clip3)"><g clip-path="url(#clip4)"><path d="M117.944 8.10424 114.325 18.714 107.397 18.714 114.171 0.958898 121.656 0.958898 128.431 18.714 121.564 18.714 117.944 8.10424ZM109.129 6.09364 109.129 0.98983 91.9924 0.98983 91.9924 6.09364 97.0034 6.09364 97.0034 18.714 104.087 18.714 104.087 6.09364 109.129 6.09364ZM83.1458 8.10424 79.5267 18.714 72.5979 18.714 79.372 0.958898 86.8576 0.958898 93.6318 18.714 86.703 18.714 83.1458 8.10424ZM171.272 45.3466 171.272 37.861 177.149 27.5915 173.499 27.5915 171.364 32.1386C170.746 33.4377 170.282 34.5203 169.818 35.6648L169.756 35.6648C169.261 34.4585 168.797 33.4686 168.209 32.1386L166.106 27.5915 162.394 27.5915 167.993 37.9538 167.993 45.3466 171.272 45.3466ZM160.724 42.2534C159.858 42.6246 158.497 42.903 157.197 42.903 153.3 42.903 151.011 40.4284 151.011 36.5309 151.011 32.2623 153.609 30.0042 157.228 30.0042 158.682 30.0042 159.858 30.3136 160.693 30.6847L161.404 28.1174C160.755 27.7771 159.239 27.3441 157.105 27.3441 151.692 27.3441 147.608 30.8703 147.608 36.7165 147.608 42.1297 151.042 45.6559 156.672 45.6559 158.806 45.6559 160.507 45.2229 161.281 44.8517L160.724 42.2534ZM133.72 45.3466 133.72 38.9746C133.72 36.0669 133.689 33.7161 133.534 31.4271L133.627 31.3962C134.493 33.4068 135.669 35.572 136.813 37.5208L141.453 45.3157 144.794 45.3157 144.794 27.5915 141.793 27.5915 141.793 33.778C141.793 36.5 141.855 38.789 142.072 41.1398L142.01 41.1708C141.175 39.253 140.154 37.1805 138.978 35.2318L134.4 27.6225 130.689 27.6225 130.689 45.3775 133.72 45.3466ZM118.068 37.861 119.429 33.4686C119.739 32.417 120.017 31.1797 120.264 30.1589L120.326 30.1589C120.605 31.1797 120.883 32.386 121.223 33.4996L122.615 37.861 118.068 37.861ZM123.172 40.3356 124.781 45.3466 128.245 45.3466 122.492 27.5915 118.378 27.5915 112.686 45.3466 116.027 45.3466 117.542 40.3356 123.172 40.3356ZM105.479 45.3466 108.727 45.3466 108.727 30.3136 113.831 30.3136 113.831 27.5915 100.406 27.5915 100.406 30.3136 105.479 30.3136 105.479 45.3466ZM91.683 45.3466 102.231 45.3466 102.231 42.6246 94.9309 42.6246 94.9309 27.5915 91.683 27.5915 91.683 45.3466ZM74.1445 27.5915 74.1445 37.7373C74.1445 43.3051 76.8047 45.625 80.9186 45.625 85.2182 45.625 88.0021 43.1814 88.0021 37.7373L88.0021 27.5915 84.7542 27.5915 84.7542 37.9229C84.7542 41.3873 83.3623 42.9958 81.0114 42.9958 78.8153 42.9958 77.3614 41.3873 77.3614 37.9229L77.3614 27.5915 74.1445 27.5915ZM59.6992 44.4805C60.6581 45.0682 62.6068 45.625 64.4936 45.625 69.0716 45.625 71.2369 43.1504 71.2369 40.3047 71.2369 37.7682 69.7521 36.1907 66.6589 35.0462 64.2771 34.1492 63.2564 33.4996 63.2564 32.1386 63.2564 31.0869 64.1225 30.0042 66.1949 30.0042 67.8652 30.0042 69.1025 30.4992 69.7521 30.8394L70.5254 28.2102C69.5975 27.7462 68.2055 27.3441 66.2568 27.3441 62.4212 27.3441 59.9775 29.5403 59.9775 32.4479 59.9775 34.9843 61.8644 36.5619 64.772 37.6136 66.9992 38.4178 67.9271 39.222 67.9271 40.5521 67.9271 42.0059 66.7826 42.9648 64.7102 42.9648 63.0708 42.9648 61.4623 42.439 60.4106 41.8203L59.6992 44.4805ZM45.6869 45.3466 45.6869 38.9746C45.6869 36.0669 45.6559 33.7161 45.5013 31.4271L45.5941 31.3962C46.4602 33.4068 47.6356 35.572 48.7801 37.5208L53.4199 45.3157 56.7606 45.3157 56.7606 27.5915 53.7602 27.5915 53.7602 33.778C53.7602 36.5 53.822 38.789 54.0386 41.1398L53.9767 41.1708C53.1415 39.253 52.1208 37.1805 50.9453 35.2318L46.3983 27.5915 42.6864 27.5915 42.6864 45.3466 45.6869 45.3466ZM31.5508 43.0267C28.4576 43.0267 26.6326 40.0572 26.6636 36.5309 26.6636 33.0047 28.3648 29.9114 31.6127 29.9114 34.8606 29.9114 36.5 33.0665 36.5 36.4072 36.4691 40.1191 34.7059 43.0267 31.5508 43.0267L31.5508 43.0267ZM31.458 45.625C36.3144 45.625 39.9335 42.2225 39.9335 36.2835 39.9335 31.2106 36.8712 27.3131 31.7055 27.3131 26.6945 27.3131 23.261 31.1487 23.261 36.6237 23.2301 41.7894 26.4161 45.625 31.458 45.625L31.458 45.625ZM21.6216 42.2534C20.7555 42.6246 19.3945 42.903 18.0953 42.903 14.1979 42.903 11.9089 40.4284 11.9089 36.5309 11.9089 32.2623 14.5072 30.0042 18.1263 30.0042 19.5801 30.0042 20.7555 30.3136 21.5907 30.6847L22.3021 28.1174C21.6525 27.7771 20.1369 27.3441 18.0025 27.3441 12.5894 27.3441 8.50636 30.8703 8.50636 36.7165 8.50636 42.1297 11.9398 45.6559 17.5695 45.6559 19.7038 45.6559 21.4051 45.2229 22.1784 44.8517L21.6216 42.2534ZM71.2059 56.7915C71.5462 56.6987 72.1958 56.6369 73.2165 56.6369 75.289 56.6369 76.65 57.5339 76.65 59.4517 76.65 61.2148 75.3199 62.3593 73.1237 62.3593L71.2369 62.3593 71.2369 56.7915ZM68.0199 71.9483 71.2059 71.9483 71.2059 64.7102 72.8144 64.7102C74.6394 64.7411 75.4746 65.4835 75.9695 67.8034 76.4644 69.9996 76.8975 71.4534 77.1449 71.9483L80.4547 71.9483C80.1144 71.2678 79.6195 69.2263 79.0627 67.0301 78.6297 65.3288 77.8873 64.1225 76.6191 63.6275L76.6191 63.5657C78.2894 62.978 79.8051 61.4314 79.8051 59.1733 79.8051 57.6576 79.2483 56.4513 78.2894 55.647 77.114 54.6572 75.3818 54.2242 72.8453 54.2242 70.9894 54.2242 69.1953 54.3788 67.958 54.5953L67.958 71.9483ZM40.0263 71.0822C40.9852 71.6699 42.9339 72.2267 44.8208 72.2267 49.3987 72.2267 51.564 69.7521 51.564 66.9064 51.564 64.3699 50.0792 62.7924 46.986 61.6479 44.6042 60.7508 43.5835 60.1013 43.5835 58.7402 43.5835 57.6886 44.4496 56.6059 46.522 56.6059 48.1924 56.6059 49.4297 57.1008 50.0792 57.4411L50.8525 54.8119C49.9246 54.3479 48.5326 53.9458 46.5839 53.9458 42.7483 53.9458 40.3047 56.1419 40.3047 59.0496 40.3047 61.586 42.1915 63.1636 45.0992 64.2153 47.3263 65.0195 48.2542 65.8237 48.2542 67.1538 48.2542 68.6076 47.1097 69.5665 45.0373 69.5665 43.3979 69.5665 41.7894 69.0407 40.7377 68.422L40.0263 71.0822ZM64.3699 61.4314 57.6886 61.4314 57.6886 56.8843 64.772 56.8843 64.772 54.2242 54.4407 54.2242 54.4407 71.9792 65.1432 71.9792 65.1432 69.2881 57.6576 69.2881 57.6576 64.0915 64.339 64.0915 64.339 61.4314ZM90.8788 71.9483 97.0034 54.1932 93.5699 54.1932 90.9716 62.2975C90.2911 64.4627 89.6415 66.628 89.1775 68.7004L89.1157 68.7004C88.6517 66.5661 88.064 64.4936 87.3835 62.2356L84.9708 54.1623 81.4445 54.1623 87.1979 71.9174 90.8788 71.9174ZM98.9212 54.1932 98.9212 71.9483 102.169 71.9483 102.169 54.1932 98.9212 54.1932ZM118.068 68.8551C117.202 69.2263 115.841 69.5047 114.542 69.5047 110.644 69.5047 108.356 67.0301 108.356 63.1017 108.356 58.833 110.954 56.575 114.573 56.575 116.027 56.575 117.202 56.8843 118.037 57.2555L118.749 54.6881C118.099 54.3479 116.583 53.9148 114.449 53.9148 109.036 53.9148 104.953 57.4411 104.953 63.2873 104.953 68.7004 108.386 72.2267 114.016 72.2267 116.15 72.2267 117.852 71.7936 118.625 71.4225L118.068 68.8551ZM131.276 61.4314 124.595 61.4314 124.595 56.8843 131.678 56.8843 131.678 54.2242 121.347 54.2242 121.347 71.9792 132.05 71.9792 132.05 69.2881 124.564 69.2881 124.564 64.0915 131.245 64.0915 131.245 61.4314ZM134.122 71.0822C135.081 71.6699 137.03 72.2267 138.917 72.2267 143.494 72.2267 145.66 69.7521 145.66 66.9064 145.66 64.3699 144.175 62.7924 141.082 61.6479 138.7 60.7508 137.679 60.1013 137.679 58.7402 137.679 57.6886 138.545 56.6059 140.618 56.6059 142.288 56.6059 143.525 57.1008 144.175 57.4411L144.948 54.8119C144.02 54.3479 142.628 53.9458 140.68 53.9458 136.844 53.9458 134.4 56.1419 134.4 59.0496 134.4 61.586 136.287 63.1636 139.195 64.2153 141.422 65.0195 142.35 65.8237 142.35 67.1538 142.35 68.6076 141.206 69.5665 139.133 69.5665 137.494 69.5665 135.885 69.0407 134.833 68.422L134.122 71.0822ZM74.3301 6.09364 74.3301 0.98983 57.1936 0.98983 57.1936 6.09364 62.2047 6.09364 62.2047 18.714 69.2881 18.714 69.2881 6.09364 74.3301 6.09364Z" fill="#FFFFFF" fill-rule="evenodd" transform="matrix(1.00219 0 -0 1 335 485.046)"/></g></g></g></g></svg>